<svg width="512" height="512" viewBox="0 0 512 512" fill="none" xmlns="http://www.w3.org/2000/svg">
<path d="M381.512 129.984C359.2 70.768 311.232 33.2635 238.776 33.2635C146.584 33.2635 82.0805 101.719 76.537 191.031C32.0885 205.247 0.000976562 250.592 0.000976562 301.952C0.000976562 364.824 49.425 417.935 107.912 417.935H154.136C162.968 417.935 170.136 410.767 170.136 401.935C170.136 393.095 162.968 385.935 154.136 385.935H107.912C66.7605 385.935 31.4965 347.48 31.4965 301.952C31.4965 261.72 59.7045 225.423 95.0885 219.343L109.608 216.839L108.32 202.175L108.2 201.991C108.2 124.055 159.488 65.2715 238.776 65.2715C302.328 65.2715 338.033 96.5835 354.545 149.991L357.968 161.007L369.496 161.255C428.936 162.503 481.048 210.728 481.048 270.64C481.048 325.168 444.912 385.936 390.2 385.936H353.64C344.808 385.936 337.64 393.104 337.64 401.936C337.64 410.776 344.808 417.936 353.64 417.936L390.08 417.888C470.08 415.776 511.752 339.353 511.752 270.641C511.752 196.785 453.872 137.769 381.512 129.985L381.512 129.984ZM267.992 257.47C267.904 257.374 267.872 257.294 267.815 257.214L263.768 252.982C261.552 250.638 258.6 249.478 255.648 249.494C252.695 249.47 249.759 250.638 247.503 252.982L243.456 257.214C243.376 257.294 243.359 257.39 243.288 257.47L185.536 321.342C181.064 326.014 181.064 333.575 185.536 338.263L189.568 340.998C194.04 345.67 201.288 344.158 205.752 339.486L239.808 301.518V462.734C239.808 471.566 246.976 478.734 255.808 478.734C264.64 478.734 271.808 471.566 271.808 462.734V301.67L306.992 340.486C311.464 345.158 318.696 346.67 323.16 341.998L327.192 339.262C331.665 334.574 331.665 327.014 327.192 322.342L267.992 257.47Z" fill="black"/>
</svg>
